<svg xmlns="http://www.w3.org/2000/svg" viewBox="0 0 1080 1080" width="1080" height="1080" preserveAspectRatio="xMidYMid meet" style="width: 100%; height: 100%; transform: translate3d(0px, 0px, 0px);"><defs><clipPath id="__lottie_element_42"><rect width="1080" height="1080" x="0" y="0"></rect></clipPath><mask id="__lottie_element_43" mask-type="alpha"><g transform="matrix(-0.04710645228624344,-0.9988898634910583,0.9988898634910583,-0.04710645228624344,388,666)" opacity="1" style="display: block;"><g opacity="1" transform="matrix(1,0,0,1,0,0)"><path stroke-linecap="butt" stroke-linejoin="miter" fill-opacity="0" stroke-miterlimit="4" stroke="rgb(0,0,0)" stroke-opacity="1" stroke-width="144" d=" M-228,-212 C-228,-212 537.5969848632812,494.3190002441406 537.5969848632812,494.3190002441406"></path></g></g></mask><mask id="__lottie_element_47" mask-type="alpha"><g transform="matrix(1,0,0,1,544,524)" opacity="1" style="display: block;"><g opacity="1" transform="matrix(1,0,0,1,0,0)"><path stroke-linecap="butt" stroke-linejoin="miter" fill-opacity="0" stroke-miterlimit="4" stroke="rgb(0,0,0)" stroke-opacity="1" stroke-width="144" d=" M-228,-212 C-228,-212 240,224 240,224"></path></g></g></mask></defs><g clip-path="url(#__lottie_element_42)"><g mask="url(#__lottie_element_47)" style="display: block;"><g transform="matrix(1,0,0,1,533.801025390625,541.8870239257812)" opacity="1"><g opacity="1" transform="matrix(1,0,0,1,0,0)"><path fill="rgb(132,44,32)" fill-opacity="1" d=" M-193.87100219726562,-123.94000244140625 C-193.48199462890625,-122.25399780273438 -191.58900451660156,-122.19400024414062 -191.10699462890625,-120.65299987792969 C-191.19000244140625,-120.91699981689453 -193.35800170898438,-116.8550033569336 -190.71099853515625,-117.10199737548828 C-190.60800170898438,-118.97699737548828 -188.20599365234375,-118.21099853515625 -187.15899658203125,-117.4990005493164 C-185.28199768066406,-114.13300323486328 -180.9409942626953,-112.93900299072266 -179.26400756835938,-111.18900299072266 C-178.45599365234375,-110.34600067138672 -178.572998046875,-108.60600280761719 -177.68299865722656,-107.7699966430664 C-176.09800720214844,-106.27999877929688 -174.093994140625,-105.13200378417969 -172.42100524902344,-103.56500244140625 C-168.77499389648438,-100.15399932861328 -165.8070068359375,-96.87699890136719 -162.9459991455078,-93.83899688720703 C-161.22300720214844,-92.00700378417969 -159.33299255371094,-91.23799896240234 -157.68299865722656,-89.63300323486328 C-157.26600646972656,-89.22699737548828 -157.86700439453125,-87.625 -157.41799926757812,-87.26699829101562 C-156.9949951171875,-86.9280014038086 -155.4459991455078,-87.89099884033203 -155.05099487304688,-87.53099822998047 C-154.156005859375,-86.71099853515625 -154.38600158691406,-84.97799682617188 -153.4720001220703,-84.11199951171875 C-151.65499877929688,-82.38899993896484 -147.96299743652344,-82.11599731445312 -148.0760040283203,-78.7239990234375 C-142.77999877929688,-78.26100158691406 -140.9199981689453,-73.26799774169922 -137.5500030517578,-70.31099700927734 C-135.91200256347656,-68.875 -133.98699951171875,-67.55599975585938 -132.28700256347656,-66.10700225830078 C-130.39100646972656,-64.48999786376953 -128.71200561523438,-62.14099884033203 -125.84100341796875,-62.034000396728516 C-124.47000122070312,-57.715999603271484 -118.79499816894531,-54.979000091552734 -116.49700164794922,-53.49100112915039 C-116.05899810791016,-53.207000732421875 -116.63400268554688,-51.47200012207031 -116.23300170898438,-51.12200164794922 C-115.82099914550781,-50.762001037597656 -114.29499816894531,-51.72999954223633 -113.86599731445312,-51.387001037597656 C-113.427001953125,-51.0369987487793 -114.03900146484375,-49.36899948120117 -113.60099792480469,-49.020999908447266 C-113.16200256347656,-48.67100143432617 -111.6719970703125,-49.632999420166016 -111.23400115966797,-49.28499984741211 C-110.78700256347656,-48.926998138427734 -111.39900207519531,-47.30099868774414 -110.97000122070312,-46.91699981689453 C-109.2300033569336,-45.367000579833984 -107.06099700927734,-44.6870002746582 -105.83899688720703,-43.89699935913086 C-105.4010009765625,-43.612998962402344 -105.98300170898438,-41.86600112915039 -105.5739974975586,-41.52799987792969 C-105.18499755859375,-41.20500183105469 -103.71099853515625,-41.95500183105469 -103.20600128173828,-41.792999267578125 C-102.87100219726562,-41.685001373291016 -102.13400268554688,-39.81100082397461 -101.75800323486328,-39.55699920654297 C-99.28700256347656,-37.9010009765625 -94.18599700927734,-35.19300079345703 -93.86499786376953,-33.25 C-93.63899993896484,-31.88800048828125 -93.0469970703125,-32.80699920654297 -92.54900360107422,-32.19900131225586 C-90.197998046875,-29.325000762939453 -87.2229995727539,-26.624000549316406 -84.52200317382812,-24.707000732421875 C-84.06300354003906,-24.381000518798828 -82.70600128173828,-25.148000717163086 -82.15499877929688,-24.97100067138672 C-81.43399810791016,-24.738000869750977 -79.99199676513672,-22.288999557495117 -79.39099884033203,-21.68400001525879 C-79.1719970703125,-21.464000701904297 -79.47899627685547,-20.716999053955078 -79.25900268554688,-20.500999450683594 C-78.88600158691406,-20.136999130249023 -77.31600189208984,-21.082000732421875 -76.89099884033203,-20.764999389648438 C-75.79299926757812,-19.94300079345703 -75.18699645996094,-18.357999801635742 -74.12699890136719,-17.479000091552734 C-70.20600128173828,-14.22700023651123 -67.0770034790039,-12.031999588012695 -63.60100173950195,-9.067000389099121 C-56.80099868774414,-3.2660000324249268 -49.88399887084961,3.0899999141693115 -43.731998443603516,7.88700008392334 C-43.12300109863281,8.362000465393066 -43.14400100708008,8.480999946594238 -42.41699981689453,8.937999725341797 C-42.15599822998047,9.10099983215332 -41.49100112915039,8.637999534606934 -41.231998443603516,8.805000305175781 C-40.801998138427734,9.086000442504883 -41.38800048828125,10.871000289916992 -40.96799850463867,11.17300033569336 C-39.38600158691406,12.310999870300293 -37.56700134277344,12.105999946594238 -35.96900177001953,13.01099967956543 C-35.83700180053711,14.194000244140625 -35.70500183105469,15.378999710083008 -35.573001861572266,16.562000274658203 C-30.27899932861328,18.724000930786133 -25.695999145507812,22.316999435424805 -21.36400032043457,25.760000228881836 C-19.208999633789062,27.474000930786133 -16.860000610351562,29.238000869750977 -14.784000396728516,31.01799964904785 C-13.142000198364258,32.42499923706055 -12.295000076293945,34.25699996948242 -10.838000297546387,34.17100143432617 C-9.486000061035156,34.09299850463867 -10.211000442504883,34.58599853515625 -9.520999908447266,35.22100067138672 C-4.320000171661377,40.025001525878906 0.9649999737739563,43.52199935913086 6.26800012588501,47.84000015258789 C8.269000053405762,49.46900177001953 9.371000289916992,52.2760009765625 10.479000091552734,53.35900115966797 C10.847000122070312,53.71900177001953 12.456999778747559,52.75299835205078 12.845999717712402,53.09400177001953 C16.66699981689453,54.944000244140625 18.90999984741211,54.82400131225586 22.176000595092773,57.400001525878906 C22.850000381469727,57.93299865722656 24.02199935913086,57.75899887084961 24.674999237060547,58.32099914550781 C25.597000122070312,59.11399841308594 25.33799934387207,60.88100051879883 26.2549991607666,61.737998962402344 C26.64299964904785,62.10300064086914 28.202999114990234,61.13800048828125 28.621999740600586,61.472999572753906 C29.06999969482422,61.83100128173828 28.459999084472656,63.45000076293945 28.88599967956543,63.8390007019043 C30.577999114990234,65.38600158691406 32.79899978637695,66.12699890136719 34.018001556396484,66.86199951171875 C35.08700180053711,67.51000213623047 35.7239990234375,68.18000030517578 36.64899826049805,68.96600341796875 C37.49399948120117,69.68399810791016 37.36199951171875,71.69000244140625 38.22999954223633,72.38500213623047 C39.12900161743164,73.10299682617188 41.02399826049805,72.427001953125 41.9119987487793,73.1709976196289 C43.73500061035156,74.69400024414062 44.20399856567383,77.1259994506836 46.124000549316406,78.69200134277344 C46.555999755859375,79.04499816894531 48.05400085449219,78.0790023803711 48.49100112915039,78.427001953125 C48.89099884033203,78.74800109863281 48.32600021362305,80.53700256347656 48.75600051879883,80.79399871826172 C49.84400177001953,81.45099639892578 51.82600021362305,80.38200378417969 52.4379997253418,81.58200073242188 C53.643001556396484,84.87999725341797 56.78499984741211,87.11499786376953 59.28200149536133,89.20500183105469 C64.76699829101562,93.7979965209961 70.16400146484375,97.83799743652344 75.0719985961914,101.822998046875 C77.85099792480469,104.0780029296875 81.29499816894531,105.87799835205078 83.0989990234375,109.31600189208984 C88.16200256347656,110.22200012207031 91.15599822998047,114.73300170898438 94.80799865722656,117.59200286865234 C100.93000030517578,122.38500213623047 106.45700073242188,126.49800109863281 111.78199768066406,130.07899475097656 C114.0250015258789,131.58399963378906 116.1760025024414,132.8260040283203 118.22799682617188,134.14999389648438 C120.26000213623047,135.46299743652344 121.4280014038086,137.23300170898438 123.49199676513672,138.35499572753906 C124.39299774169922,138.8459930419922 125.41699981689453,140.16700744628906 126.12300109863281,140.45899963378906 C127.96900177001953,141.218994140625 129.53900146484375,140.26100158691406 130.98899841308594,141.11599731445312 C132.06399536132812,141.7480010986328 132.63600158691406,143.66299438476562 133.7530059814453,144.4010009765625 C134.96400451660156,145.19900512695312 136.76800537109375,145.07200622558594 137.5679931640625,146.3699951171875 C138.9709930419922,148.66200256347656 140.50999450683594,150.78399658203125 141.91299438476562,153.0760040283203 C144.78500366210938,155.44400024414062 150.4550018310547,155.63099670410156 150.85699462890625,158.0679931640625 C151.10499572753906,159.56700134277344 153.71200561523438,159.33900451660156 154.6739959716797,160.03900146484375 C159.09500122070312,163.26400756835938 162.43899536132812,166.64599609375 166.51600646972656,169.50100708007812 C168.0240020751953,170.5590057373047 168.89100646972656,171.7530059814453 170.46299743652344,172.656005859375 C171.78399658203125,173.4149932861328 172.031005859375,173.71800231933594 173.09500122070312,174.7570037841797 C173.45700073242188,175.11099243164062 175.00399780273438,174.23300170898438 175.46099853515625,174.4929962158203 C176.84300231933594,175.2779998779297 178.0399932861328,176.83700561523438 179.40899658203125,177.6479949951172 C180.7169952392578,178.4239959716797 181.8979949951172,178.9340057373047 183.22500610351562,179.61900329589844 C185.32000732421875,180.70199584960938 187.5659942626953,180.572998046875 190.45799255371094,180.0070037841797 C193.0290069580078,186.23599243164062 202.23699951171875,184.1529998779297 205.8509979248047,189.07400512695312 C213.4429931640625,186.76800537109375 215.04400634765625,191.95899963378906 221.63299560546875,190.90699768066406 C221.6820068359375,186.80099487304688 217.6909942626953,187.7469940185547 216.23899841308594,185.51600646972656 C213.9040069580078,183.3350067138672 216.86199951171875,183.0970001220703 214.52699279785156,180.91400146484375 C209.24400329589844,178.98300170898438 203.55599975585938,177.55799865722656 200.44900512695312,172.89999389648438 C199.19000244140625,169.37899780273438 201.17799377441406,168.4530029296875 200.83900451660156,165.66700744628906 C195.8179931640625,163.85699462890625 191.8209991455078,160.76499938964844 187.9459991455078,157.52000427246094 C188.58299255371094,155.1840057373047 191.38699340820312,156.3070068359375 188.73199462890625,153.83700561523438 C186.77200317382812,152.43699645996094 185.92100524902344,151.82400512695312 184.78599548339844,150.68499755859375 C184.56700134277344,150.46499633789062 184.8730010986328,149.71499633789062 184.6529998779297,149.49899291992188 C184.28199768066406,149.13699340820312 182.72300720214844,150.07000732421875 182.28700256347656,149.76400756835938 C180.14199829101562,148.26300048828125 177.7899932861328,146.1649932861328 175.70799255371094,144.5070037841797 C169.25599670410156,139.36900329589844 172.8679962158203,128.947998046875 169.51199340820312,121.23200225830078 C167.4980010986328,117.45800018310547 162.1269989013672,117.88099670410156 160.302001953125,113.87200164794922 C156.8179931640625,106.54299926757812 149.85299682617188,103.56700134277344 149.50399780273438,92.30899810791016 C146.83599853515625,89.0530014038086 143.0850067138672,87.0260009765625 140.16099548339844,83.76599884033203 C139.28199768066406,82.78299713134766 139.5,81.44000244140625 138.58200073242188,80.34700012207031 C137.81300354003906,79.43399810791016 136.55099487304688,79.69499969482422 135.9499969482422,78.24500274658203 C135.36700439453125,76.83599853515625 135.90899658203125,74.96099853515625 135.42100524902344,73.51100158691406 C132.56399536132812,71.99700164794922 130.843994140625,70.64600372314453 128.97500610351562,69.43699645996094 C128.5399932861328,69.15699768066406 129.09800720214844,67.43699645996094 128.71099853515625,67.0719985961914 C126.64199829101562,65.1240005493164 122.30999755859375,64.50599670410156 121.9990005493164,60.630001068115234 C121.1969985961914,57.83399963378906 123.8740005493164,57.814998626708984 122.52200317382812,54.58000183105469 C119.14900207519531,54.391998291015625 120.0790023803711,51.0629997253418 118.30999755859375,49.05699920654297 C117.19999694824219,47.79999923706055 114.62999725341797,46.22100067138672 113.0479965209961,44.854000091552734 C112.04000091552734,43.983001708984375 111.53600311279297,43.50699996948242 110.41600036621094,42.75 C109.20899963378906,41.93600082397461 107.5719985961914,41.867000579833984 107.6510009765625,39.4630012512207 C105.76100158691406,35.79899978637695 111.38099670410156,38.132999420166016 109.49099731445312,34.4640007019043 C105.74800109863281,32.95399856567383 100.33000183105469,28.378000259399414 97.77999877929688,26.187999725341797 C96.76899719238281,25.316999435424805 97.11399841308594,23.861000061035156 96.20099639892578,22.767000198364258 C95.63200378417969,22.089000701904297 94.16600036621094,21.423999786376953 93.56900024414062,20.665000915527344 C90.94100189208984,17.332000732421875 93.62999725341797,14.256999969482422 92.37899780273438,10.012999534606934 C95.08100128173828,9.329999923706055 96.94499969482422,9.694999694824219 98.42900085449219,10.53499984741211 C97.74500274658203,7.710999965667725 94.94599914550781,5.734000205993652 92.9010009765625,3.9639999866485596 C90.76200103759766,2.111999988555908 88.3030014038086,0.7929999828338623 86.3219985961914,-1.2949999570846558 C83.85199737548828,-3.8980000019073486 82.30500030517578,-6.965000152587891 80.66200256347656,-9.048999786376953 C80.14099884033203,-9.710000038146973 78.61299896240234,-10.427000045776367 78.03199768066406,-11.154000282287598 C75.33100128173828,-14.517999649047852 72.2959976196289,-18.12299919128418 70.79100036621094,-22.32699966430664 C68.05699920654297,-24.30299949645996 64.18599700927734,-24.856000900268555 63.948001861572266,-29.95199966430664 C61.95800018310547,-31.488000869750977 57.4630012512207,-35.1510009765625 55.53799819946289,-36.75600051879883 C53.94300079345703,-38.0890007019043 52.86600112915039,-41.17499923706055 51.45899963378906,-41.09299850463867 C50.13199996948242,-41.01499938964844 50.801998138427734,-41.457000732421875 50.143001556396484,-42.14400100708008 C48.20000076293945,-44.167999267578125 45.617000579833984,-46.73899841308594 44.483001708984375,-49.9010009765625 C39.34000015258789,-51.73699951171875 34.88600158691406,-55.24599838256836 31.457000732421875,-59.233001708984375 C30.666000366210938,-60.152000427246094 30.474000930786133,-61.84299850463867 29.875999450683594,-62.650001525878906 C27.729999542236328,-65.55799865722656 24.420000076293945,-67.48699951171875 24.084999084472656,-71.58999633789062 C22.086999893188477,-71.69499969482422 20.51300048828125,-73.3499984741211 18.95400047302246,-74.61199951171875 C17.347000122070312,-75.91100311279297 13.694000244140625,-79.18900299072266 13.559000015258789,-80.0009994506836 C13.333999633789062,-81.36499786376953 12.753999710083008,-80.44300079345703 12.241999626159668,-81.05400085449219 C9.739999771118164,-84.04399871826172 7.900000095367432,-86.15399932861328 5.400000095367432,-88.6760025024414 C2.450000047683716,-91.65299987792969 -0.7910000085830688,-94.10399627685547 -3.944000005722046,-97.21900177001953 C-4.843999862670898,-98.10900115966797 -5.714000225067139,-98.53500366210938 -6.574999809265137,-99.322998046875 C-7,-99.71199798583984 -6.392000198364258,-101.33300018310547 -6.840000152587891,-101.68900299072266 C-7.247000217437744,-102.01399993896484 -8.843000411987305,-101.06199645996094 -9.204999923706055,-101.42500305175781 C-10.03600025177002,-102.25599670410156 -10.088000297546387,-104.06600189208984 -10.78600025177002,-104.84400177001953 C-11.621000289916992,-105.77400207519531 -12.699999809265137,-106.01399993896484 -13.418000221252441,-106.947998046875 C-15.482999801635742,-109.63200378417969 -17.55900001525879,-112.4020004272461 -18.027000427246094,-116.0199966430664 C-21.909000396728516,-116.1050033569336 -24.979999542236328,-119.87300109863281 -28.02400016784668,-119.69400024414062 C-30.211000442504883,-119.56700134277344 -31.065000534057617,-121.96399688720703 -31.97100067138672,-122.8489990234375 C-32.862998962402344,-123.72000122070312 -35.96799850463867,-122.54100036621094 -35.7869987487793,-124.81999969482422 C-37.255001068115234,-132.8730010986328 -44.81800079345703,-133.30299377441406 -46.05400085449219,-141.64700317382812 C-49.007999420166016,-143.3489990234375 -52.87699890136719,-143.9010009765625 -52.89799880981445,-149.27200317382812 C-56.915000915527344,-147.54400634765625 -58.44200134277344,-151.92799377441406 -60.52899932861328,-153.21299743652344 C-63.08700180053711,-154.79100036621094 -65.88600158691406,-155.26400756835938 -68.15899658203125,-157.1540069580078 C-68.33499908447266,-158.73399353027344 -68.51200103759766,-160.31100463867188 -68.68800354003906,-161.88800048828125 C-72.41500091552734,-160.14999389648438 -74.01300048828125,-164.2030029296875 -76.31800079345703,-165.83099365234375 C-78.82499694824219,-167.60000610351562 -81.76499938964844,-168.96800231933594 -84.08100128173828,-170.9530029296875 C-88.83499908447266,-175.02999877929688 -92.52100372314453,-180.427001953125 -97.50299835205078,-183.83700561523438 C-98.6449966430664,-184.6179962158203 -99.7770004272461,-184.05499267578125 -101.18599700927734,-184.6230010986328 C-101.86000061035156,-184.8939971923828 -103.08200073242188,-186.3280029296875 -103.81700134277344,-186.72500610351562 C-105.91400146484375,-187.86099243164062 -108.10900115966797,-189.18299865722656 -110.26499938964844,-190.8000030517578 C-118.83399963378906,-191.95599365234375 -124.33399963378906,-188.59300231933594 -131.83299255371094,-190.78599548339844 C-132.5760040283203,-188.13800048828125 -135.6230010986328,-189.66799926757812 -137.6179962158203,-188.94000244140625 C-139.51400756835938,-188.25100708007812 -141.23800659179688,-186.531005859375 -143.27200317382812,-185.91299438476562 C-146.9219970703125,-184.80599975585938 -150.3159942626953,-185.1699981689453 -153.79200744628906,-183.53799438476562 C-155.88600158691406,-181.61900329589844 -158.2050018310547,-179.8800048828125 -161.67999267578125,-179.06399536132812 C-169.82000732421875,-181.927001953125 -183.2449951171875,-179.10299682617188 -192.58599853515625,-176.8090057373047 C-193.55999755859375,-174.18299865722656 -194.4239959716797,-173.14300537109375 -196.9239959716797,-172.7310028076172 C-198.24000549316406,-172.51300048828125 -197.406005859375,-171.79299926757812 -197.97500610351562,-171.41400146484375 C-199.53700256347656,-170.3679962158203 -201.0279998779297,-170.6820068359375 -202.57699584960938,-169.70199584960938 C-202.68499755859375,-169.63499450683594 -203.2469940185547,-168.69400024414062 -203.62899780273438,-168.38400268554688 C-206.1230010986328,-166.37399291992188 -210.26199340820312,-166.7570037841797 -211.6490020751953,-165.09300231933594 C-212.6179962158203,-163.93299865722656 -213.68800354003906,-163.33399963378906 -214.93600463867188,-162.3300018310547 C-217.6580047607422,-160.13299560546875 -217.73800659179688,-157.906005859375 -219.00900268554688,-155.8820037841797 C-219.1739959716797,-155.62100219726562 -218.70899963378906,-154.95799255371094 -218.8769989013672,-154.7010040283203 C-219.11099243164062,-154.3350067138672 -221.08200073242188,-154.81900024414062 -221.24400329589844,-154.43699645996094 C-222.04800415039062,-152.53199768066406 -220.8719940185547,-149.2899932861328 -221.63400268554688,-147.1999969482422 C-221.63400268554688,-147.1999969482422 -215.77000427246094,-126.59700012207031 -193.87100219726562,-123.94000244140625z"></path></g></g></g><g mask="url(#__lottie_element_43)" style="display: block;"><g transform="matrix(1,0,0,1,539.7780151367188,539.530029296875)" opacity="1"><g opacity="1" transform="matrix(1,0,0,1,0,0)"><path fill="rgb(132,44,32)" fill-opacity="1" d=" M341.54998779296875,-396.4549865722656 C341.54998779296875,-396.4549865722656 338.989013671875,-395.635986328125 338.989013671875,-395.635986328125 C338.989013671875,-395.635986328125 329.76800537109375,-392.0840148925781 329.76800537109375,-392.0840148925781 C329.76800537109375,-392.0840148925781 321.29901123046875,-386.82501220703125 321.29901123046875,-386.82501220703125 C321.29901123046875,-386.82501220703125 312.2349853515625,-382.8450012207031 312.2349853515625,-382.8450012207031 C312.2349853515625,-382.8450012207031 302.7359924316406,-382.89898681640625 302.7359924316406,-382.89898681640625 C302.7359924316406,-382.89898681640625 295.91400146484375,-377.78900146484375 295.91400146484375,-377.78900146484375 C295.91400146484375,-377.78900146484375 290.322998046875,-370.68499755859375 290.322998046875,-370.68499755859375 C290.322998046875,-370.68499755859375 280.5509948730469,-370.6340026855469 280.5509948730469,-370.6340026855469 C280.5509948730469,-370.6340026855469 274.6199951171875,-364.2950134277344 274.6199951171875,-364.2950134277344 C274.6199951171875,-364.2950134277344 269.635009765625,-356.6470031738281 269.635009765625,-356.6470031738281 C269.635009765625,-356.6470031738281 259.95098876953125,-356.1809997558594 259.95098876953125,-356.1809997558594 C259.95098876953125,-356.1809997558594 255.40899658203125,-348.010009765625 255.40899658203125,-348.010009765625 C255.40899658203125,-348.010009765625 248.30999755859375,-343.6650085449219 248.30999755859375,-343.6650085449219 C248.30999755859375,-343.6650085449219 238.9080047607422,-342.47698974609375 238.9080047607422,-342.47698974609375 C238.9080047607422,-342.47698974609375 233.51699829101562,-335.68798828125 233.51699829101562,-335.68798828125 C233.51699829101562,-335.68798828125 228.17300415039062,-328.875 228.17300415039062,-328.875 C228.17300415039062,-328.875 221.7989959716797,-323.5450134277344 221.7989959716797,-323.5450134277344 C221.7989959716797,-323.5450134277344 212.89999389648438,-321.4320068359375 212.89999389648438,-321.4320068359375 C212.89999389648438,-321.4320068359375 209.01499938964844,-312.97198486328125 209.01499938964844,-312.97198486328125 C209.01499938964844,-312.97198486328125 200.95399475097656,-309.7489929199219 200.95399475097656,-309.7489929199219 C200.95399475097656,-309.7489929199219 192.9510040283203,-306.4530029296875 192.9510040283203,-306.4530029296875 C192.9510040283203,-306.4530029296875 187.84800720214844,-299.49798583984375 187.84800720214844,-299.49798583984375 C187.84800720214844,-299.49798583984375 181.15199279785156,-294.54998779296875 181.15199279785156,-294.54998779296875 C181.15199279785156,-294.54998779296875 175.83099365234375,-287.9930114746094 175.83099365234375,-287.9930114746094 C175.83099365234375,-287.9930114746094 169.9290008544922,-282.12200927734375 169.9290008544922,-282.12200927734375 C169.9290008544922,-282.12200927734375 161.85899353027344,-278.7720031738281 161.85899353027344,-278.7720031738281 C161.85899353027344,-278.7720031738281 157.51600646972656,-271.0589904785156 157.51600646972656,-271.0589904785156 C157.51600646972656,-271.0589904785156 149.62100219726562,-267.5150146484375 149.62100219726562,-267.5150146484375 C149.62100219726562,-267.5150146484375 144.0279998779297,-261.2869873046875 144.0279998779297,-261.2869873046875 C144.0279998779297,-261.2869873046875 137.2169952392578,-256.4739990234375 137.2169952392578,-256.4739990234375 C137.2169952392578,-256.4739990234375 131.45700073242188,-250.46800231933594 131.45700073242188,-250.46800231933594 C131.45700073242188,-250.46800231933594 124.49099731445312,-245.78599548339844 124.49099731445312,-245.78599548339844 C124.49099731445312,-245.78599548339844 119.99700164794922,-238.43299865722656 119.99700164794922,-238.43299865722656 C119.99700164794922,-238.43299865722656 112.0530014038086,-234.802001953125 112.0530014038086,-234.802001953125 C112.0530014038086,-234.802001953125 107.26300048828125,-227.75799560546875 107.26300048828125,-227.75799560546875 C107.26300048828125,-227.75799560546875 101.08200073242188,-222.22500610351562 101.08200073242188,-222.22500610351562 C101.08200073242188,-222.22500610351562 94.28299713134766,-217.36300659179688 94.28299713134766,-217.36300659179688 C94.28299713134766,-217.36300659179688 87.45600128173828,-212.56300354003906 87.45600128173828,-212.56300354003906 C87.45600128173828,-212.56300354003906 81.26699829101562,-205.67599487304688 81.26699829101562,-205.67599487304688 C81.26699829101562,-205.67599487304688 73.2229995727539,-200.72799682617188 73.2229995727539,-200.72799682617188 C73.2229995727539,-200.72799682617188 66.58300018310547,-194.33299255371094 66.58300018310547,-194.33299255371094 C66.58300018310547,-194.33299255371094 61.66600036621094,-186.197998046875 61.66600036621094,-186.197998046875 C61.66600036621094,-186.197998046875 53.770999908447266,-181.07899475097656 53.770999908447266,-181.07899475097656 C53.770999908447266,-181.07899475097656 47.79100036621094,-174.03599548339844 47.79100036621094,-174.03599548339844 C47.79100036621094,-174.03599548339844 44.00899887084961,-164.781005859375 44.00899887084961,-164.781005859375 C44.00899887084961,-164.781005859375 36.33700180053711,-159.44400024414062 36.33700180053711,-159.44400024414062 C36.33700180053711,-159.44400024414062 29.530000686645508,-153.23399353027344 29.530000686645508,-153.23399353027344 C29.530000686645508,-153.23399353027344 23.131999969482422,-146.29200744628906 23.131999969482422,-146.29200744628906 C23.131999969482422,-146.29200744628906 17.30500030517578,-138.79299926757812 17.30500030517578,-138.79299926757812 C17.30500030517578,-138.79299926757812 10.815999984741211,-131.92100524902344 10.815999984741211,-131.92100524902344 C10.815999984741211,-131.92100524902344 4.821000099182129,-124.58200073242188 4.821000099182129,-124.58200073242188 C4.821000099182129,-124.58200073242188 -5.4730000495910645,-121.29499816894531 -5.4730000495910645,-121.29499816894531 C-5.4730000495910645,-121.29499816894531 -8.154999732971191,-110.83399963378906 -8.154999732971191,-110.83399963378906 C-8.154999732971191,-110.83399963378906 -17.650999069213867,-106.80899810791016 -17.650999069213867,-106.80899810791016 C-17.650999069213867,-106.80899810791016 -23.652999877929688,-99.4800033569336 -23.652999877929688,-99.4800033569336 C-23.652999877929688,-99.4800033569336 -30.388999938964844,-92.83899688720703 -30.388999938964844,-92.83899688720703 C-30.388999938964844,-92.83899688720703 -35.06999969482422,-84.25800323486328 -35.06999969482422,-84.25800323486328 C-35.06999969482422,-84.25800323486328 -42.680999755859375,-78.43199920654297 -42.680999755859375,-78.43199920654297 C-42.680999755859375,-78.43199920654297 -49.54600143432617,-71.90299987792969 -49.54600143432617,-71.90299987792969 C-49.54600143432617,-71.90299987792969 -53.111000061035156,-62.38399887084961 -53.111000061035156,-62.38399887084961 C-53.111000061035156,-62.38399887084961 -62.47800064086914,-58.09199905395508 -62.47800064086914,-58.09199905395508 C-62.47800064086914,-58.09199905395508 -68.9540023803711,-52.064998626708984 -68.9540023803711,-52.064998626708984 C-68.9540023803711,-52.064998626708984 -73.29000091552734,-44.09299850463867 -73.29000091552734,-44.09299850463867 C-73.29000091552734,-44.09299850463867 -80.54399871826172,-38.77899932861328 -80.54399871826172,-38.77899932861328 C-80.54399871826172,-38.77899932861328 -83.80899810791016,-29.767000198364258 -83.80899810791016,-29.767000198364258 C-83.80899810791016,-29.767000198364258 -91.78700256347656,-25.142000198364258 -91.78700256347656,-25.142000198364258 C-91.78700256347656,-25.142000198364258 -97.01799774169922,-17.94499969482422 -97.01799774169922,-17.94499969482422 C-97.01799774169922,-17.94499969482422 -104.53600311279297,-12.906999588012695 -104.53600311279297,-12.906999588012695 C-104.53600311279297,-12.906999588012695 -108.88200378417969,-4.86899995803833 -108.88200378417969,-4.86899995803833 C-108.88200378417969,-4.86899995803833 -114.08200073242188,2.3580000400543213 -114.08200073242188,2.3580000400543213 C-114.08200073242188,2.3580000400543213 -122.29900360107422,6.739999771118164 -122.29900360107422,6.739999771118164 C-122.29900360107422,6.739999771118164 -125.9530029296875,15.406999588012695 -125.9530029296875,15.406999588012695 C-125.9530029296875,15.406999588012695 -131.7480010986328,22.05500030517578 -131.7480010986328,22.05500030517578 C-131.7480010986328,22.05500030517578 -139.03599548339844,27.32900047302246 -139.03599548339844,27.32900047302246 C-139.03599548339844,27.32900047302246 -145.9530029296875,32.96799850463867 -145.9530029296875,32.96799850463867 C-145.9530029296875,32.96799850463867 -150.45700073242188,40.77899932861328 -150.45700073242188,40.77899932861328 C-150.45700073242188,40.77899932861328 -156.68800354003906,47.50699996948242 -156.68800354003906,47.50699996948242 C-156.68800354003906,47.50699996948242 -162.61399841308594,54.500999450683594 -162.61399841308594,54.500999450683594 C-162.61399841308594,54.500999450683594 -169.3719940185547,60.78099822998047 -169.3719940185547,60.78099822998047 C-169.3719940185547,60.78099822998047 -172.6439971923828,65.94300079345703 -172.6439971923828,65.94300079345703 C-173.06100463867188,64.09400177001953 -172.85800170898438,62.641998291015625 -172.32200622558594,61.400001525878906 C-175.0570068359375,62.38199996948242 -176.72300720214844,65.3759994506836 -178.26400756835938,67.5989990234375 C-179.5659942626953,69.47699737548828 -180.50599670410156,71.5199966430664 -181.79800415039062,73.39399719238281 C-181.79800415039062,73.39399719238281 -182.42300415039062,73.7959976196289 -182.42300415039062,73.7959976196289 C-182.42300415039062,73.7959976196289 -189.1009979248047,80.21399688720703 -189.1009979248047,80.21399688720703 C-189.1009979248047,80.21399688720703 -189.3560028076172,80.66500091552734 -189.3560028076172,80.66500091552734 C-189.53900146484375,80.83000183105469 -189.7239990234375,80.99600219726562 -189.89199829101562,81.16100311279297 C-190.4929962158203,81.7490005493164 -191.04100036621094,83.34700012207031 -191.70199584960938,84.00199890136719 C-194.75799560546875,87.0479965209961 -198.01800537109375,90.44999694824219 -202.03599548339844,92.39700317382812 C-203.70700073242188,95.3270034790039 -203.84300231933594,99.23500061035156 -208.88400268554688,100.01699829101562 C-210.197998046875,102.16000366210938 -213.35899353027344,107.02200317382812 -214.74899291992188,109.10800170898438 C-215.9029998779297,110.83599853515625 -218.8560028076172,112.23799896240234 -218.62399291992188,113.62799835205078 C-218.40499877929688,114.93900299072266 -218.9149932861328,114.31900024414062 -219.5279998779297,115.0479965209961 C-221.33200073242188,117.1969985961914 -223.61099243164062,120.04100036621094 -226.63400268554688,121.50700378417969 C-227.90899658203125,126.81700134277344 -230.92100524902344,131.62100219726562 -234.51800537109375,135.45700073242188 C-235.34800720214844,136.3419952392578 -237.00799560546875,136.71400451660156 -237.74600219726562,137.3939971923828 C-240.4080047607422,139.83900451660156 -241.97000122070312,143.33700561523438 -246.01400756835938,144.10899353027344 C-245.90499877929688,146.10699462890625 -247.3820037841797,147.8489990234375 -248.47000122070312,149.53399658203125 C-249.58900451660156,151.27000427246094 -252.45700073242188,155.2550048828125 -253.25,155.4759979248047 C-254.58200073242188,155.8459930419922 -253.60299682617188,156.322998046875 -254.156005859375,156.89700317382812 C-256.8599853515625,159.7050018310547 -258.7619934082031,161.76199340820312 -261.00201416015625,164.51699829101562 C-263.64599609375,167.7689971923828 -265.7349853515625,171.2530059814453 -268.4949951171875,174.7209930419922 C-269.28399658203125,175.71099853515625 -269.614013671875,176.6219940185547 -270.30499267578125,177.56300354003906 C-270.6470031738281,178.02699279785156 -272.3240051269531,177.59500122070312 -272.6300048828125,178.07899475097656 C-272.9100036621094,178.51800537109375 -271.7909851074219,180.00399780273438 -272.1130065917969,180.4029998779297 C-272.85101318359375,181.3179931640625 -274.6449890136719,181.56399536132812 -275.343994140625,182.34100341796875 C-276.1789855957031,183.27099609375 -276.3009948730469,184.36900329589844 -277.15301513671875,185.18299865722656 C-279.6000061035156,187.5229949951172 -282.13299560546875,189.88400268554688 -285.67999267578125,190.73699951171875 C-285.3489990234375,194.6060028076172 -288.7669982910156,198.06199645996094 -288.26300048828125,201.07000732421875 C-287.9020080566406,203.2310028076172 -290.1940002441406,204.33599853515625 -290.97698974609375,205.33200073242188 C-291.74700927734375,206.31199645996094 -290.2430114746094,209.2729949951172 -292.52801513671875,209.33700561523438 C-300.37701416015625,211.65899658203125 -299.9960021972656,219.2239990234375 -308.15899658203125,221.3470001220703 C-309.53399658203125,224.46600341796875 -309.66900634765625,228.3719940185547 -315.0069885253906,228.96800231933594 C-312.8590087890625,232.77699279785156 -317.0539855957031,234.76400756835938 -318.1080017089844,236.9770050048828 C-319.40301513671875,239.68899536132812 -319.5740051269531,242.5229949951172 -321.2099914550781,244.98500061035156 C-322.7619934082031,245.3300018310547 -324.3110046386719,245.6739959716797 -325.8599853515625,246.01800537109375 C-323.7330017089844,249.53700256347656 -327.5920104980469,251.55999755859375 -328.9639892578125,254.0260009765625 C-330.4549865722656,256.7080078125 -331.5,259.7770080566406 -333.2250061035156,262.2919921875 C-336.7699890136719,267.4549865722656 -341.739990234375,271.697998046875 -344.59698486328125,277.0169982910156 C-345.2510070800781,278.2359924316406 -344.5710144042969,279.3009948730469 -344.9849853515625,280.76300048828125 C-345.1820068359375,281.4620056152344 -346.47698974609375,282.83099365234375 -346.7929992675781,283.60400390625 C-347.697998046875,285.80999755859375 -348.77801513671875,288.1340026855469 -350.15399169921875,290.45098876953125 C-350.385986328125,299.093994140625 -346.4530029296875,304.2030029296875 -347.83099365234375,311.8940124511719 C-345.1180114746094,312.3489990234375 -346.31298828125,315.5419921875 -345.3760070800781,317.447998046875 C-344.4880065917969,319.260009765625 -342.5929870605469,320.7900085449219 -341.760986328125,322.7460021972656 C-340.2699890136719,326.2560119628906 -340.26800537109375,329.6679992675781 -338.27301025390625,332.95001220703125 C-336.1400146484375,334.82598876953125 -334.16400146484375,336.9469909667969 -332.9800109863281,340.3139953613281 C-334.9549865722656,348.7139892578125 -330.7099914550781,361.7590026855469 -327.4289855957031,370.8009948730469 C-324.7139892578125,371.4880065917969 -323.5870056152344,372.23699951171875 -322.9100036621094,374.6780090332031 C-322.5530090332031,375.9630126953125 -321.9259948730469,375.0559997558594 -321.4880065917969,375.58099365234375 C-320.281005859375,377.0220031738281 -320.4339904785156,378.53900146484375 -319.2929992675781,379.9739990234375 C-319.2149963378906,380.07501220703125 -318.218994140625,380.531005859375 -317.8699951171875,380.87799072265625 C-315.60400390625,383.14300537109375 -315.5409851074219,387.29901123046875 -313.739013671875,388.5 C-312.48199462890625,389.3389892578125 -311.7720031738281,390.3389892578125 -310.6400146484375,391.47198486328125 C-308.1650085449219,393.9429931640625 -305.9410095214844,393.7850036621094 -303.7929992675781,394.8320007324219 C-303.5159912109375,394.9679870605469 -302.906005859375,394.43499755859375 -302.63299560546875,394.5740051269531 C-302.2439880371094,394.7669982910156 -302.5140075683594,396.77801513671875 -302.11700439453125,396.89898681640625 C-300.1369934082031,397.4939880371094 -297.0400085449219,395.97698974609375 -294.8800048828125,396.510986328125 C-294.8800048828125,396.510986328125 -275.02398681640625,388.47601318359375 -274.72698974609375,366.4179992675781 C-273.0920104980469,365.85101318359375 -273.2359924316406,363.9620056152344 -271.7550048828125,363.3179931640625 C-272.0090026855469,363.4289855957031 -267.73699951171875,365.14801025390625 -268.2659912109375,362.5429992675781 C-270.1419982910156,362.6419982910156 -269.6369934082031,360.1719970703125 -269.0409851074219,359.05499267578125 C-265.8949890136719,356.8280029296875 -265.1730041503906,352.3840026855469 -263.6130065917969,350.5299987792969 C-262.86199951171875,349.635986328125 -261.1189880371094,349.5660095214844 -260.38299560546875,348.5920104980469 C-259.0710144042969,346.85699462890625 -258.1440124511719,344.7409973144531 -256.7650146484375,342.9100036621094 C-253.76400756835938,338.9200134277344 -250.822998046875,335.61700439453125 -248.10899353027344,332.4469909667969 C-246.4720001220703,330.5369873046875 -245.91099548339844,328.57598876953125 -244.49200439453125,326.7640075683594 C-244.13299560546875,326.3059997558594 -242.47500610351562,326.7330017089844 -242.16700744628906,326.24798583984375 C-241.875,325.7909851074219 -242.99899291992188,324.3550109863281 -242.6840057373047,323.9230041503906 C-241.96499633789062,322.94500732421875 -240.21600341796875,322.98699951171875 -239.4530029296875,321.9859924316406 C-237.93499755859375,319.9949951171875 -238.0590057373047,316.2959899902344 -234.6739959716797,316.0450134277344 C-234.781005859375,310.7300109863281 -230.01499938964844,308.3450012207031 -227.43600463867188,304.6780090332031 C-226.1840057373047,302.8949890136719 -225.07899475097656,300.84100341796875 -223.82000732421875,298.9949951171875 C-222.4149932861328,296.93701171875 -220.25999450683594,295.0159912109375 -220.46099853515625,292.1499938964844 C-216.31500244140625,290.3240051269531 -214.1999969482422,284.3900146484375 -212.9669952392578,281.9460144042969 C-212.7310028076172,281.4800109863281 -210.9459991455078,281.864990234375 -210.64100646972656,281.4289855957031 C-210.3280029296875,280.9809875488281 -211.45199584960938,279.5669860839844 -211.15699768066406,279.10400390625 C-210.8560028076172,278.6300048828125 -209.1320037841797,279.0610046386719 -208.83299255371094,278.5880126953125 C-208.53199768066406,278.114013671875 -209.6479949951172,276.7349853515625 -209.3489990234375,276.2619934082031 C-209.04100036621094,275.77899169921875 -207.35899353027344,276.2139892578125 -207.0229949951172,275.7460021972656 C-205.66799926757812,273.8500061035156 -205.22300720214844,271.6210021972656 -204.56900024414062,270.3210144042969 C-204.33299255371094,269.8550109863281 -202.53599548339844,270.24700927734375 -202.2429962158203,269.80499267578125 C-201.96400451660156,269.3840026855469 -202.86599731445312,267.99700927734375 -202.75900268554688,267.4779968261719 C-202.68800354003906,267.13299560546875 -200.9029998779297,266.20098876953125 -200.6909942626953,265.79998779296875 C-199.3090057373047,263.1650085449219 -197.16299438476562,257.8030090332031 -195.26600646972656,257.2760009765625 C-193.93600463867188,256.9049987792969 -194.91400146484375,256.4150085449219 -194.36199951171875,255.85499572753906 C-191.75599670410156,253.2100067138672 -189.38900756835938,249.96299743652344 -187.77200317382812,247.07200622558594 C-187.4969940185547,246.58099365234375 -188.4040069580078,245.31399536132812 -188.28799438476562,244.7469940185547 C-188.13400268554688,244.0050048828125 -185.85400390625,242.30999755859375 -185.3159942626953,241.64700317382812 C-185.1199951171875,241.406005859375 -184.34500122070312,241.63099670410156 -184.1540069580078,241.38900756835938 C-183.83200073242188,240.97900390625 -184.94000244140625,239.5189971923828 -184.67100524902344,239.06300354003906 C-183.9720001220703,237.88400268554688 -182.45799255371094,237.11099243164062 -181.697998046875,235.96299743652344 C-180.2480010986328,233.7740020751953 -179.05599975585938,231.8260040283203 -177.88699340820312,229.9340057373047 C-177.88699340820312,229.9340057373047 -171.57200622558594,227.406005859375 -171.57200622558594,227.406005859375 C-171.57200622558594,227.406005859375 -169.31199645996094,217.54100036621094 -169.31199645996094,217.54100036621094 C-169.31199645996094,217.54100036621094 -159.6719970703125,214.1750030517578 -159.6719970703125,214.1750030517578 C-159.6719970703125,214.1750030517578 -156.19400024414062,205.4320068359375 -156.19400024414062,205.4320068359375 C-156.19400024414062,205.4320068359375 -151.2259979248047,198.00599670410156 -151.2259979248047,198.00599670410156 C-151.2259979248047,198.00599670410156 -141.9949951171875,194.1580047607422 -141.9949951171875,194.1580047607422 C-141.9949951171875,194.1580047607422 -138.13900756835938,185.8000030517578 -138.13900756835938,185.8000030517578 C-138.13900756835938,185.8000030517578 -131.41299438476562,179.81399536132812 -131.41299438476562,179.81399536132812 C-131.41299438476562,179.81399536132812 -125.2699966430664,173.33399963378906 -125.2699966430664,173.33399963378906 C-125.2699966430664,173.33399963378906 -121.97000122070312,164.60299682617188 -121.97000122070312,164.60299682617188 C-121.97000122070312,164.60299682617188 -114.41899871826172,159.21800231933594 -114.41899871826172,159.21800231933594 C-114.41899871826172,159.21800231933594 -109.63600158691406,151.67100524902344 -109.63600158691406,151.67100524902344 C-109.63600158691406,151.67100524902344 -107.56900024414062,142.10699462890625 -107.56900024414062,142.10699462890625 C-107.56900024414062,142.10699462890625 -100.15599822998047,136.55799865722656 -100.15599822998047,136.55799865722656 C-100.15599822998047,136.55799865722656 -92.81800079345703,130.8979949951172 -92.81800079345703,130.8979949951172 C-92.81800079345703,130.8979949951172 -88.60399627685547,122.96800231933594 -88.60399627685547,122.96800231933594 C-88.60399627685547,122.96800231933594 -85.13899993896484,114.54199981689453 -85.13899993896484,114.54199981689453 C-85.13899993896484,114.54199981689453 -80.9010009765625,106.68599700927734 -80.9010009765625,106.68599700927734 C-80.9010009765625,106.68599700927734 -75.13800048828125,99.87000274658203 -75.13800048828125,99.87000274658203 C-75.13800048828125,99.87000274658203 -67.18499755859375,93.97200012207031 -67.18499755859375,93.97200012207031 C-67.18499755859375,93.97200012207031 -65.35199737548828,84.02200317382812 -65.35199737548828,84.02200317382812 C-65.35199737548828,84.02200317382812 -58,77.71700286865234 -58,77.71700286865234 C-58,77.71700286865234 -54.61000061035156,68.79000091552734 -54.61000061035156,68.79000091552734 C-54.61000061035156,68.79000091552734 -47.922000885009766,62.064998626708984 -47.922000885009766,62.064998626708984 C-47.922000885009766,62.064998626708984 -43.558998107910156,53.78099822998047 -43.558998107910156,53.78099822998047 C-43.558998107910156,53.78099822998047 -37.40800094604492,46.715999603271484 -37.40800094604492,46.715999603271484 C-37.40800094604492,46.715999603271484 -33.808998107910156,38.66299819946289 -33.808998107910156,38.66299819946289 C-33.808998107910156,38.66299819946289 -26.187000274658203,33.40599822998047 -26.187000274658203,33.40599822998047 C-26.187000274658203,33.40599822998047 -22.3700008392334,25.499000549316406 -22.3700008392334,25.499000549316406 C-22.3700008392334,25.499000549316406 -20.319000244140625,16.31800079345703 -20.319000244140625,16.31800079345703 C-20.319000244140625,16.31800079345703 -15.718999862670898,8.928999900817871 -15.718999862670898,8.928999900817871 C-15.718999862670898,8.928999900817871 -7.002999782562256,4.521999835968018 -7.002999782562256,4.521999835968018 C-7.002999782562256,4.521999835968018 -3.4719998836517334,-3.634999990463257 -3.4719998836517334,-3.634999990463257 C-3.4719998836517334,-3.634999990463257 3.4179999828338623,-9.329999923706055 3.4179999828338623,-9.329999923706055 C3.4179999828338623,-9.329999923706055 5.248000144958496,-18.773000717163086 5.248000144958496,-18.773000717163086 C5.248000144958496,-18.773000717163086 14.220999717712402,-22.888999938964844 14.220999717712402,-22.888999938964844 C14.220999717712402,-22.888999938964844 18.172000885009766,-30.763999938964844 18.172000885009766,-30.763999938964844 C18.172000885009766,-30.763999938964844 24.78700065612793,-36.61899948120117 24.78700065612793,-36.61899948120117 C24.78700065612793,-36.61899948120117 29.37700080871582,-44.01499938964844 29.37700080871582,-44.01499938964844 C29.37700080871582,-44.01499938964844 34.224998474121094,-51.22100067138672 34.224998474121094,-51.22100067138672 C34.224998474121094,-51.22100067138672 36.49800109863281,-60.43299865722656 36.49800109863281,-60.43299865722656 C36.49800109863281,-60.43299865722656 46.60900115966797,-64.36000061035156 46.60900115966797,-64.36000061035156 C46.60900115966797,-64.36000061035156 50.08000183105469,-73.38800048828125 50.08000183105469,-73.38800048828125 C50.08000183105469,-73.38800048828125 57.49800109863281,-79.41799926757812 57.49800109863281,-79.41799926757812 C57.49800109863281,-79.41799926757812 60.27299880981445,-88.98300170898438 60.27299880981445,-88.98300170898438 C60.27299880981445,-88.98300170898438 65.11399841308594,-96.98600006103516 65.11399841308594,-96.98600006103516 C65.11399841308594,-96.98600006103516 72.61900329589844,-102.91500091552734 72.61900329589844,-102.91500091552734 C72.61900329589844,-102.91500091552734 76.21900177001953,-111.93900299072266 76.21900177001953,-111.93900299072266 C76.21900177001953,-111.93900299072266 81.9729995727539,-118.63800048828125 81.9729995727539,-118.63800048828125 C81.9729995727539,-118.63800048828125 90.29900360107422,-123.33899688720703 90.29900360107422,-123.33899688720703 C90.29900360107422,-123.33899688720703 97.14700317382812,-129.21299743652344 97.14700317382812,-129.21299743652344 C97.14700317382812,-129.21299743652344 102.63400268554688,-136.16600036621094 102.63400268554688,-136.16600036621094 C102.63400268554688,-136.16600036621094 104.13500213623047,-146.28900146484375 104.13500213623047,-146.28900146484375 C104.13500213623047,-146.28900146484375 109.21299743652344,-153.5760040283203 109.21299743652344,-153.5760040283203 C109.21299743652344,-153.5760040283203 117.14299774169922,-158.57400512695312 117.14299774169922,-158.57400512695312 C117.14299774169922,-158.57400512695312 123.76200103759766,-164.60699462890625 123.76200103759766,-164.60699462890625 C123.76200103759766,-164.60699462890625 127.39299774169922,-173.0570068359375 127.39299774169922,-173.0570068359375 C127.39299774169922,-173.0570068359375 133.3090057373047,-179.6649932861328 133.3090057373047,-179.6649932861328 C133.3090057373047,-179.6649932861328 137.31100463867188,-187.88499450683594 137.31100463867188,-187.88499450683594 C137.31100463867188,-187.88499450683594 143.2899932861328,-194.92300415039062 143.2899932861328,-194.92300415039062 C143.2899932861328,-194.92300415039062 150.72000122070312,-200.80299377441406 150.72000122070312,-200.80299377441406 C150.72000122070312,-200.80299377441406 156.2740020751953,-208.2570037841797 156.2740020751953,-208.2570037841797 C156.2740020751953,-208.2570037841797 161.26699829101562,-216.1840057373047 161.26699829101562,-216.1840057373047 C161.26699829101562,-216.1840057373047 170.86099243164062,-220.19900512695312 170.86099243164062,-220.19900512695312 C170.86099243164062,-220.19900512695312 173.3040008544922,-230.33900451660156 173.3040008544922,-230.33900451660156 C173.3040008544922,-230.33900451660156 181.72000122070312,-235.28599548339844 181.72000122070312,-235.28599548339844 C181.72000122070312,-235.28599548339844 185.7550048828125,-244.697998046875 185.7550048828125,-244.697998046875 C185.7550048828125,-244.697998046875 192.3179931640625,-251.88299560546875 192.3179931640625,-251.88299560546875 C192.3179931640625,-251.88299560546875 201.3280029296875,-256.9179992675781 201.3280029296875,-256.9179992675781 C201.3280029296875,-256.9179992675781 209.37399291992188,-262.7460021972656 209.37399291992188,-262.7460021972656 C209.37399291992188,-262.7460021972656 211.8820037841797,-273.69000244140625 211.8820037841797,-273.69000244140625 C211.8820037841797,-273.69000244140625 221.3280029296875,-275.87799072265625 221.3280029296875,-275.87799072265625 C221.3280029296875,-275.87799072265625 223.54800415039062,-284.9289855957031 223.54800415039062,-284.9289855957031 C223.54800415039062,-284.9289855957031 231.4600067138672,-288.6099853515625 231.4600067138672,-288.6099853515625 C231.4600067138672,-288.6099853515625 235.74099731445312,-295.7080078125 235.74099731445312,-295.7080078125 C235.74099731445312,-295.7080078125 240.8780059814453,-301.9939880371094 240.8780059814453,-301.9939880371094 C240.8780059814453,-301.9939880371094 248.36900329589844,-305.9549865722656 248.36900329589844,-305.9549865722656 C248.36900329589844,-305.9549865722656 254.27999877929688,-311.48199462890625 254.27999877929688,-311.48199462890625 C254.27999877929688,-311.48199462890625 259.63299560546875,-317.5780029296875 259.63299560546875,-317.5780029296875 C259.63299560546875,-317.5780029296875 263.2560119628906,-325.4169921875 263.2560119628906,-325.4169921875 C263.2560119628906,-325.4169921875 269,-331.1709899902344 269,-331.1709899902344 C269,-331.1709899902344 278.2040100097656,-334.7590026855469 278.2040100097656,-334.7590026855469 C278.2040100097656,-334.7590026855469 284.4129943847656,-341.59698486328125 284.4129943847656,-341.59698486328125 C284.4129943847656,-341.59698486328125 292.5159912109375,-346.3009948730469 292.5159912109375,-346.3009948730469 C292.5159912109375,-346.3009948730469 297.7969970703125,-354.2200012207031 297.7969970703125,-354.2200012207031 C297.7969970703125,-354.2200012207031 303.77301025390625,-361.43701171875 303.77301025390625,-361.43701171875 C303.77301025390625,-361.43701171875 312.7669982910156,-364.9230041503906 312.7669982910156,-364.9230041503906 C312.7669982910156,-364.9230041503906 318.23199462890625,-372.989990234375 318.23199462890625,-372.989990234375 C318.23199462890625,-372.989990234375 329.06500244140625,-378.5069885253906 329.06500244140625,-378.5069885253906 C329.06500244140625,-378.5069885253906 331.8219909667969,-381.4859924316406 331.8219909667969,-381.4859924316406 C331.8219909667969,-381.4859924316406 341.0530090332031,-387.10101318359375 341.0530090332031,-387.10101318359375 C341.0530090332031,-387.10101318359375 345.00299072265625,-388.82598876953125 345.00299072265625,-388.82598876953125 C345.00299072265625,-388.82598876953125 347.53399658203125,-392.447998046875 347.53399658203125,-392.447998046875 C347.53399658203125,-392.447998046875 349.7330017089844,-395.8819885253906 349.7330017089844,-395.8819885253906 C349.7330017089844,-395.8819885253906 350.16400146484375,-397.0400085449219 350.16400146484375,-397.0400085449219 C350.16400146484375,-397.0400085449219 341.54998779296875,-396.4549865722656 341.54998779296875,-396.4549865722656z"></path></g></g></g></g></svg>